<svg width="192mm" height="149mm" version="1.1" viewBox="0 0 192 149" xmlns="http://www.w3.org/2000/svg" xmlns:xlink="http://www.w3.org/1999/xlink">
 <g style="font-family:'Times New Roman';-inkscape-font-specification:'Times New Roman'" text-anchor="middle" font-size="7px">
 <rect width="192" height="149" fill="#fff"/>
 <g id="a" transform="translate(66 125)" stroke-dasharray="3"><rect x="7" y="-10" width="32" height="32" fill="none" stroke="#000"/><circle cx="39" cy="-10" r="18" fill="none" stroke="#000"/><text font-size="10px"><tspan x="22" y="8">A</tspan><tspan x="39" y="-13">B</tspan></text></g>
 <g opacity=".5"><rect x="5" y="40" width="32" height="32" fill="#05f"/><circle cx="37" cy="40" r="18" fill="#880"/><path d="m38 97a18 18 0 0 0-18 18h-14v32h32v-14a18 18 0 0 0 18-18 18 18 0 0 0-18-18z" fill="#05f"/><path d="m73 40v32h32v-14a18 18 0 0 1-18-18z" fill="#05f"/><path d="m171 22a18 18 0 0 0-18 18h18v18a18 18 0 0 0 18-18 18 18 0 0 0-18-18z" fill="#880"/><path d="m87 115a18 18 0 0 0 18 18v-18z" fill="#05f"/><path d="m171 97a18 18 0 0 0-18 18h18v18a18 18 0 0 0 18-18 18 18 0 0 0-18-18zm0 36a18 18 0 0 1-18-18h-14v32h32z" fill="#05f"/></g>
 <use transform="translate(0-75)" xlink:href="#a"/><use transform="translate(66-75)" xlink:href="#a"/><use transform="translate(66)" xlink:href="#a"/><use transform="translate(-68-75)" xlink:href="#a"/><use transform="translate(-67)" xlink:href="#a"/>
 <text><tspan x="35" y="13">Two shapes</tspan><tspan x="35" y="19">A and B</tspan><tspan x="101" y="14">A not B</tspan><tspan x="162" y="13">B not A</tspan><tspan x="32" y="92">A union B (OR)</tspan><tspan x="99" y="92">A intersection  B (AND)</tspan><tspan x="167" y="92">A XOR B</tspan></text></g></svg>