<?xml version="1.0" encoding="UTF-8" standalone="no"?>
<!-- Created with Inkscape (http://www.inkscape.org/) -->

<svg width="171.97917mm" height="171.97917mm" viewBox="0 0 171.97918 171.97918" version="1.1" id="svg5" xmlns="http://www.w3.org/2000/svg" xmlns:svg="http://www.w3.org/2000/svg">
  <defs id="defs2" />
  <g id="g3725" transform="translate(-9.9880168,-32.286759)">
    <path id="circle876" style="fill:#d45500;fill-opacity:1;fill-rule:evenodd;stroke:none;stroke-width:0.264583;stop-color:#000000" d="M 60.573562,97.019112 A 20.774999,20.774999 0 0 0 39.798087,117.79407 20.774999,20.774999 0 0 0 60.573562,138.56903 20.774999,20.774999 0 0 0 74.29624,133.37348 20.774999,20.774999 0 0 0 88.019434,138.56903 20.774999,20.774999 0 0 0 108.79439,117.79407 20.774999,20.774999 0 0 0 88.019434,97.019112 20.774999,20.774999 0 0 0 74.306575,102.20587 20.774999,20.774999 0 0 0 60.573562,97.019112 Z" />
    <circle style="fill:none;fill-rule:evenodd;stroke:#000000;stroke-width:0.264583;stop-color:#000000" id="circle1024" cx="60.57333" cy="117.79401" r="20.775" />
    <circle style="fill:none;fill-rule:evenodd;stroke:#000000;stroke-width:0.264583;stop-color:#000000" id="circle1026" cx="88.019646" cy="117.79401" r="20.775" />
  </g>
  <g id="g3720" transform="translate(-9.9880168,-32.286759)">
    <path id="circle3687" style="fill:#ffffff;fill-rule:evenodd;stroke:#000000;stroke-width:0.999999;stop-color:#000000" d="m 228.93945,169.66602 a 78.519684,78.519684 0 0 0 -78.52148,78.51953 78.519684,78.519684 0 0 0 78.52148,78.51953 78.519684,78.519684 0 0 0 51.86524,-19.63477 78.519684,78.519684 0 0 0 51.86719,19.63477 78.519684,78.519684 0 0 0 78.51953,-78.51953 78.519684,78.519684 0 0 0 -78.51953,-78.51953 78.519684,78.519684 0 0 0 -51.82813,19.60351 78.519684,78.519684 0 0 0 -51.9043,-19.60351 z" transform="scale(0.26458333)" />
    <circle style="fill:none;fill-rule:evenodd;stroke:#000000;stroke-width:0.264583;stop-color:#000000" id="path846" cx="60.57333" cy="65.665916" r="20.775" />
    <circle style="fill:none;fill-rule:evenodd;stroke:#000000;stroke-width:0.264583;stop-color:#000000" id="circle950" cx="88.019646" cy="65.665916" r="20.775" />
    <path id="circle4400" style="fill:#d45500;fill-rule:evenodd;stroke:#000000;stroke-width:0.264583;stop-color:#000000" d="M 74.306268,50.077563 A 20.774999,20.774999 0 0 0 67.244685,65.665759 20.774999,20.774999 0 0 0 74.29645,81.245685 20.774999,20.774999 0 0 0 81.348215,65.665759 20.774999,20.774999 0 0 0 74.306268,50.077563 Z" />
  </g>
  <g id="g3731" transform="translate(-9.9880168,-32.286759)">
    <path id="circle3661" style="fill:#ffffff;fill-rule:evenodd;stroke:#000000;stroke-width:0.999999;stop-color:#000000" d="m 227.72461,567.35156 a 78.519684,78.519684 0 0 0 -78.51953,78.51953 78.519684,78.519684 0 0 0 78.51953,78.51953 78.519684,78.519684 0 0 0 53.08008,-20.67968 78.519684,78.519684 0 0 0 53.08203,20.67968 78.519684,78.519684 0 0 0 78.51953,-78.51953 78.519684,78.519684 0 0 0 -78.51953,-78.51953 78.519684,78.519684 0 0 0 -53.07227,20.67188 78.519684,78.519684 0 0 0 -53.08984,-20.67188 z" transform="scale(0.26458333)" />
    <circle style="fill:none;fill-rule:evenodd;stroke:#000000;stroke-width:0.264583;stop-color:#000000" id="circle4432" cx="60.252247" cy="170.88666" r="20.775" />
    <circle style="fill:none;fill-rule:evenodd;stroke:#000000;stroke-width:0.264583;stop-color:#000000" id="circle4434" cx="88.340759" cy="170.88666" r="20.775" />
    <path id="circle4476" style="fill:#d45500;fill-opacity:1;fill-rule:evenodd;stroke:#000000;stroke-width:0.264583;stop-color:#000000" d="m 60.252174,150.11146 a 20.774999,20.774999 0 0 0 -20.774959,20.77496 20.774999,20.774999 0 0 0 20.774959,20.77547 20.774999,20.774999 0 0 0 14.044104,-5.4715 20.774999,20.774999 0 0 1 -6.730338,-15.30397 20.774999,20.774999 0 0 1 6.732405,-15.30501 20.774999,20.774999 0 0 0 -14.046171,-5.46995 z" />
  </g>
  <g id="g11916">
    <path d="m 131.79148,136.00699 h -1.19274 l -0.82973,5.18584 h 0.74824 l 0.14076,-0.94086 h 1.00012 l 0.14076,0.94086 h 0.82232 z m -0.63712,0.91864 0.39265,2.62255 h -0.78529 z" id="path10319" style="font-size:7.40833px;line-height:1.25;font-family:'Bebas Neue';-inkscape-font-specification:'Bebas Neue';letter-spacing:0px;word-spacing:0px;stroke-width:0.264583" />
    <path id="path10321" style="font-size:7.40833px;line-height:1.25;font-family:'Bebas Neue';-inkscape-font-specification:'Bebas Neue';letter-spacing:0px;word-spacing:0px;fill:#d45500;fill-opacity:1;stroke-width:0.999999" d="M 523.39258 513.81836 C 520.36858 513.81836 518.7168 515.61011 518.7168 518.74609 L 518.7168 528.9375 C 518.7168 532.07349 520.36858 533.86523 523.39258 533.86523 C 526.41658 533.86523 528.07031 532.07349 528.07031 528.9375 L 528.07031 518.74609 C 528.07031 515.61011 526.41658 513.81836 523.39258 513.81836 z M 506.98633 514.04297 L 506.98633 533.64258 L 509.75781 533.64258 L 509.75781 519.44531 L 513.59375 533.64258 L 516.75781 533.64258 L 516.75781 514.04297 L 514.01367 514.04297 L 514.01367 525.77344 L 510.84961 514.04297 L 506.98633 514.04297 z M 529.2168 514.04297 L 529.2168 516.8418 L 532.4375 516.8418 L 532.4375 533.64258 L 535.51758 533.64258 L 535.51758 516.8418 L 538.73828 516.8418 L 538.73828 514.04297 L 529.2168 514.04297 z M 523.30273 516.61914 C 523.33264 516.61809 523.36195 516.61914 523.39258 516.61914 C 524.37257 516.61914 524.99023 517.15077 524.99023 518.55078 L 524.99023 529.13477 C 524.99023 530.53478 524.37257 531.06641 523.39258 531.06641 C 522.41258 531.06641 521.79688 530.53478 521.79688 529.13477 L 521.79688 518.55078 C 521.79688 517.19452 522.37564 516.65167 523.30273 516.61914 z " transform="scale(0.26458333)" />
    <path d="m 145.28941,136.00699 h -1.22978 v 5.18584 h 1.28164 c 0.81492,0 1.23719,-0.42969 1.23719,-1.22979 v -0.42227 c 0,-0.54822 -0.17039,-0.94086 -0.60748,-1.11125 0.36301,-0.17039 0.52599,-0.51118 0.52599,-1.04458 v -0.1852 c 0,-0.8001 -0.36301,-1.19275 -1.20756,-1.19275 z m -0.0519,2.85221 c 0.37042,0 0.526,0.14817 0.526,0.62971 v 0.45191 c 0,0.38523 -0.14817,0.51117 -0.42228,0.51117 h -0.46672 v -1.59279 z m 0.0296,-2.11137 c 0.28892,0 0.41486,0.16298 0.41486,0.5334 v 0.28892 c 0,0.41487 -0.1852,0.54822 -0.48895,0.54822 h -0.31855 v -1.37054 z" id="path10327" style="font-size:7.40833px;line-height:1.25;font-family:'Bebas Neue';-inkscape-font-specification:'Bebas Neue';letter-spacing:0px;word-spacing:0px;stroke-width:0.264583" />
  </g>
  <g id="g16133" transform="translate(3.416645)">
    <path d="m 129.80093,82.914335 h -1.19274 l -0.82973,5.185831 h 0.74824 l 0.14076,-0.940858 h 1.00012 l 0.14076,0.940858 h 0.82233 z m -0.63711,0.918633 0.39264,2.622549 h -0.78528 z" id="path14458" style="font-size:7.40833px;line-height:1.25;font-family:'Bebas Neue';-inkscape-font-specification:'Bebas Neue';letter-spacing:0px;word-spacing:0px;stroke-width:0.264583" />
    <path id="path14460" style="font-size:7.40833px;line-height:1.25;font-family:'Bebas Neue';-inkscape-font-specification:'Bebas Neue';letter-spacing:0px;word-spacing:0px;fill:#d45500;fill-opacity:1;stroke-width:0.999999" d="m 503.91406,313.15234 c -3.024,0 -4.67578,1.79174 -4.67578,4.92774 v 10.19336 c 0,3.136 1.65178,4.92773 4.67578,4.92773 3.024,0 4.67578,-1.79173 4.67578,-4.92773 v -10.19336 c 0,-3.136 -1.65178,-4.92774 -4.67578,-4.92774 z m 6.66406,0.22461 v 19.59961 h 3.08008 v -7.98047 h 1.06446 c 1.40001,0 2.01562,0.67219 2.01562,2.49219 v 3.08008 c 0,1.596 0.11111,1.9042 0.2793,2.4082 h 3.13672 c -0.30803,-0.72799 -0.33594,-1.42691 -0.33594,-2.3789 v -3.02539 c 0,-2.044 -0.50492,-3.52788 -2.04492,-4.17188 1.372,-0.644 2.01758,-1.95861 2.01758,-3.97461 v -1.54101 c 0,-3.024 -1.37246,-4.50782 -4.56446,-4.50782 z m -6.66406,2.57617 c 0.98,0 1.59571,0.53165 1.59571,1.93165 v 10.58398 c 0,1.4 -0.61571,1.93164 -1.59571,1.93164 -0.97999,0 -1.5957,-0.53164 -1.5957,-1.93164 v -10.58398 c 0,-1.4 0.61571,-1.93165 1.5957,-1.93165 z m 9.74414,0.22461 h 1.48438 c 1.09198,0 1.56836,0.61563 1.56836,2.01563 v 1.93164 c 0,1.568 -0.70162,2.07227 -1.84961,2.07227 h -1.20313 z" transform="scale(0.26458333)" />
    <path d="m 140.44667,82.914335 h -1.22978 v 5.185831 h 1.28164 c 0.81492,0 1.23719,-0.429683 1.23719,-1.229782 v -0.422275 c 0,-0.548217 -0.17039,-0.940858 -0.60748,-1.11125 0.36301,-0.170391 0.52599,-0.511175 0.52599,-1.044574 v -0.185209 c 0,-0.800099 -0.36301,-1.192741 -1.20756,-1.192741 z m -0.0519,2.852207 c 0.37042,0 0.52599,0.148167 0.52599,0.629708 v 0.451909 c 0,0.385233 -0.14816,0.511174 -0.42227,0.511174 h -0.46673 v -1.592791 z m 0.0296,-2.111374 c 0.28892,0 0.41486,0.162984 0.41486,0.5334 v 0.288925 c 0,0.414866 -0.18521,0.548216 -0.48895,0.548216 h -0.31856 v -1.370541 z" id="path14464" style="font-size:7.40833px;line-height:1.25;font-family:'Bebas Neue';-inkscape-font-specification:'Bebas Neue';letter-spacing:0px;word-spacing:0px;stroke-width:0.264583" />
  </g>
  <g id="g22900" transform="translate(-2.39152,-11.607819)">
    <path d="m 133.96445,42.393957 h -1.19274 l -0.82973,5.185831 h 0.74824 l 0.14076,-0.940858 h 1.00012 l 0.14076,0.940858 h 0.82233 z m -0.63711,0.918633 0.39264,2.622549 h -0.78528 z" id="path21885" style="font-size:7.40833px;line-height:1.25;font-family:'Bebas Neue';-inkscape-font-specification:'Bebas Neue';letter-spacing:0px;word-spacing:0px;stroke-width:0.264583" />
    <path id="path21887" style="font-size:7.40833px;line-height:1.25;font-family:'Bebas Neue';-inkscape-font-specification:'Bebas Neue';letter-spacing:0px;word-spacing:0px;fill:#d45500;fill-opacity:1;stroke-width:0.999999" d="m 517.55078,160.22852 -3.13672,19.60156 h 2.82813 l 0.53125,-3.55664 h 3.78125 l 0.53125,3.55664 h 3.10742 l -3.13477,-19.60156 z m 9.04297,0 v 19.60156 h 2.77344 v -14.19727 l 3.83593,14.19727 h 3.16407 v -19.60156 h -2.74414 v 11.73242 l -3.16407,-11.73242 z m 11.98437,0 v 19.60156 h 4.87305 c 3.08001,0 4.5918,-1.70971 4.5918,-4.8457 v -9.91211 c 0,-3.136 -1.51179,-4.84375 -4.5918,-4.84375 z m 3.08008,2.80078 h 1.73633 c 0.98003,0 1.56836,0.50429 1.56836,1.90429 V 175.125 c 0,1.4 -0.58833,1.9043 -1.56836,1.9043 h -1.73633 z m -22.00781,0.67187 1.48438,9.91211 h -2.96875 z" transform="scale(0.26458333)" />
    <path d="m 147.89948,42.393957 h -1.22978 v 5.185831 h 1.28164 c 0.81491,0 1.23719,-0.429683 1.23719,-1.229783 v -0.422274 c 0,-0.548217 -0.17039,-0.940858 -0.60749,-1.11125 0.36301,-0.170391 0.526,-0.511175 0.526,-1.044574 v -0.185209 c 0,-0.800099 -0.36301,-1.192741 -1.20756,-1.192741 z m -0.0519,2.852207 c 0.37042,0 0.52599,0.148167 0.52599,0.629708 v 0.451908 c 0,0.385234 -0.14816,0.511175 -0.42227,0.511175 h -0.46673 v -1.592791 z m 0.0296,-2.111374 c 0.28893,0 0.41487,0.162983 0.41487,0.5334 v 0.288925 c 0,0.414866 -0.18521,0.548216 -0.48895,0.548216 h -0.31856 V 43.13479 Z" id="path21893" style="font-size:7.40833px;line-height:1.25;font-family:'Bebas Neue';-inkscape-font-specification:'Bebas Neue';letter-spacing:0px;word-spacing:0px;stroke-width:0.264583" />
  </g>
</svg>
